<svg width="72" height="64" viewBox="0 0 72 64" fill="none" xmlns="http://www.w3.org/2000/svg">
<g clip-path="url(#clip0_55_3)">
<path d="M14.064 22.5971C11.6233 25.0379 7.66598 25.0379 5.2252 22.5971C2.78443 20.1563 2.78443 16.199 5.2252 13.7583L14.064 4.91942C16.5048 2.47864 20.4621 2.47864 22.9029 4.91942C25.3437 7.36019 25.3437 11.3175 22.9029 13.7583L14.064 22.5971Z" fill="url(#paint0_linear_55_3)"/>
<path d="M44.8388 27.0165C39.9573 31.8981 32.0427 31.8981 27.1612 27.0165C22.2796 22.135 22.2796 14.2204 27.1612 9.33884C32.0427 4.45728 39.9573 4.45728 44.8388 9.33884C49.7204 14.2204 49.7204 22.135 44.8388 27.0165Z" fill="url(#paint1_linear_55_3)"/>
<path d="M57.9359 22.5971L49.0971 13.7583C46.6563 11.3175 46.6563 7.3602 49.0971 4.91942C51.5379 2.47864 55.4952 2.47864 57.9359 4.91942L66.7748 13.7583C69.2155 16.199 69.2155 20.1563 66.7748 22.5971C64.334 25.0379 60.3767 25.0379 57.9359 22.5971Z" fill="url(#paint2_linear_55_3)"/>
</g>
<path d="M14.1961 56.68C13.2721 56.68 12.4681 56.524 11.7841 56.212C11.1001 55.9 10.5721 55.462 10.2001 54.898C9.82809 54.334 9.64209 53.668 9.64209 52.9H12.3421C12.3421 53.344 12.5101 53.698 12.8461 53.962C13.1941 54.214 13.6621 54.34 14.2501 54.34C14.8141 54.34 15.2521 54.214 15.5641 53.962C15.8881 53.71 16.0501 53.362 16.0501 52.918C16.0501 52.534 15.9301 52.204 15.6901 51.928C15.4501 51.652 15.1141 51.466 14.6821 51.37L13.3501 51.064C12.2341 50.8 11.3641 50.314 10.7401 49.606C10.1281 48.886 9.82209 48.01 9.82209 46.978C9.82209 46.21 9.99609 45.544 10.3441 44.98C10.7041 44.404 11.2081 43.96 11.8561 43.648C12.5041 43.336 13.2721 43.18 14.1601 43.18C15.5041 43.18 16.5661 43.516 17.3461 44.188C18.1381 44.848 18.5341 45.742 18.5341 46.87H15.8341C15.8341 46.45 15.6841 46.12 15.3841 45.88C15.0961 45.64 14.6761 45.52 14.1241 45.52C13.6081 45.52 13.2121 45.64 12.9361 45.88C12.6601 46.108 12.5221 46.438 12.5221 46.87C12.5221 47.254 12.6301 47.584 12.8461 47.86C13.0741 48.124 13.3921 48.304 13.8001 48.4L15.2041 48.724C16.3681 48.988 17.2501 49.468 17.8501 50.164C18.4501 50.848 18.7501 51.724 18.7501 52.792C18.7501 53.56 18.5581 54.238 18.1741 54.826C17.8021 55.414 17.2741 55.87 16.5901 56.194C15.9181 56.518 15.1201 56.68 14.1961 56.68ZM20.3451 59.74L21.6951 56.014L17.9871 46.6H20.9211L22.4151 50.92C22.5231 51.244 22.6311 51.64 22.7391 52.108C22.8591 52.564 22.9491 52.936 23.0091 53.224C23.0691 52.936 23.1531 52.564 23.2611 52.108C23.3811 51.64 23.4951 51.244 23.6031 50.92L25.0431 46.6H27.8511L23.1711 59.74H20.3451ZM27.718 56.5V46.6H30.238V48.49H30.922L30.148 49.642C30.148 48.574 30.394 47.77 30.886 47.23C31.378 46.69 32.098 46.42 33.046 46.42C34.138 46.42 34.984 46.75 35.584 47.41C36.196 48.07 36.502 49 36.502 50.2V51.01H33.622V50.38C33.622 49.84 33.472 49.42 33.172 49.12C32.884 48.82 32.494 48.67 32.002 48.67C31.486 48.67 31.09 48.82 30.814 49.12C30.55 49.42 30.418 49.84 30.418 50.38V56.5H27.718ZM36.225 56.5V54.052H39.645V49.03H36.675V46.6H42.165V54.052H45.045V56.5H36.225ZM40.725 45.034C40.233 45.034 39.837 44.908 39.537 44.656C39.249 44.404 39.105 44.062 39.105 43.63C39.105 43.198 39.249 42.856 39.537 42.604C39.837 42.352 40.233 42.226 40.725 42.226C41.217 42.226 41.607 42.352 41.895 42.604C42.195 42.856 42.345 43.198 42.345 43.63C42.345 44.062 42.195 44.404 41.895 44.656C41.607 44.908 41.217 45.034 40.725 45.034ZM49.088 56.68C47.756 56.68 46.712 56.32 45.956 55.6C45.212 54.88 44.84 53.896 44.84 52.648V46.6H47.54V52.63C47.54 53.182 47.672 53.608 47.936 53.908C48.2 54.196 48.584 54.34 49.088 54.34C49.58 54.34 49.958 54.196 50.222 53.908C50.498 53.608 50.636 53.182 50.636 52.63V46.6H53.336V52.648C53.336 53.908 52.958 54.898 52.202 55.618C51.446 56.326 50.408 56.68 49.088 56.68ZM57.3969 56.68C56.5809 56.68 55.8669 56.554 55.2549 56.302C54.6429 56.038 54.1629 55.678 53.8149 55.222C53.4789 54.766 53.3109 54.232 53.3109 53.62H56.0109C56.0109 53.908 56.1369 54.142 56.3889 54.322C56.6529 54.49 56.9889 54.574 57.3969 54.574H58.1889C58.6809 54.574 59.0529 54.484 59.3049 54.304C59.5689 54.124 59.7009 53.872 59.7009 53.548C59.7009 53.248 59.5869 53.02 59.3589 52.864C59.1309 52.696 58.7769 52.582 58.2969 52.522L57.1449 52.378C55.9089 52.222 55.0089 51.922 54.4449 51.478C53.8809 51.034 53.5989 50.356 53.5989 49.444C53.5989 48.484 53.9289 47.74 54.5889 47.212C55.2489 46.684 56.2149 46.42 57.4869 46.42H58.1709C59.3829 46.42 60.3489 46.684 61.0689 47.212C61.7889 47.74 62.1489 48.448 62.1489 49.336H59.4489C59.4489 49.096 59.3289 48.904 59.0889 48.76C58.8609 48.604 58.5549 48.526 58.1709 48.526H57.4869C57.0429 48.526 56.7189 48.604 56.5149 48.76C56.3109 48.904 56.2089 49.126 56.2089 49.426C56.2089 49.702 56.2989 49.912 56.4789 50.056C56.6709 50.2 56.9709 50.302 57.3789 50.362L58.6209 50.524C59.8689 50.68 60.7929 50.992 61.3929 51.46C62.0049 51.928 62.3109 52.624 62.3109 53.548C62.3109 54.556 61.9629 55.33 61.2669 55.87C60.5709 56.41 59.5449 56.68 58.1889 56.68H57.3969Z" fill="url(#paint3_linear_55_3)"/>
<path d="M8.79609 59.74H26.2491V60.64H8.79609V59.74Z" fill="url(#paint4_linear_55_3)"/>
<path d="M14.0019 56.68C13.0779 56.68 12.2739 56.524 11.5899 56.212C10.9059 55.9 10.3779 55.462 10.0059 54.898C9.63388 54.334 9.44788 53.668 9.44788 52.9H12.1479C12.1479 53.344 12.3159 53.698 12.6519 53.962C12.9999 54.214 13.4679 54.34 14.0559 54.34C14.6199 54.34 15.0579 54.214 15.3699 53.962C15.6939 53.71 15.8559 53.362 15.8559 52.918C15.8559 52.534 15.7359 52.204 15.4959 51.928C15.2559 51.652 14.9199 51.466 14.4879 51.37L13.1559 51.064C12.0399 50.8 11.1699 50.314 10.5459 49.606C9.93388 48.886 9.62788 48.01 9.62788 46.978C9.62788 46.21 9.80188 45.544 10.1499 44.98C10.5099 44.404 11.0139 43.96 11.6619 43.648C12.3099 43.336 13.0779 43.18 13.9659 43.18C15.3099 43.18 16.3719 43.516 17.1519 44.188C17.9439 44.848 18.3399 45.742 18.3399 46.87H15.6399C15.6399 46.45 15.4899 46.12 15.1899 45.88C14.9019 45.64 14.4819 45.52 13.9299 45.52C13.4139 45.52 13.0179 45.64 12.7419 45.88C12.4659 46.108 12.3279 46.438 12.3279 46.87C12.3279 47.254 12.4359 47.584 12.6519 47.86C12.8799 48.124 13.1979 48.304 13.6059 48.4L15.0099 48.724C16.1739 48.988 17.0559 49.468 17.6559 50.164C18.2559 50.848 18.5559 51.724 18.5559 52.792C18.5559 53.56 18.3639 54.238 17.9799 54.826C17.6079 55.414 17.0799 55.87 16.3959 56.194C15.7239 56.518 14.9259 56.68 14.0019 56.68ZM20.1508 59.74L21.5008 56.014L17.7928 46.6H20.7268L22.2208 50.92C22.3288 51.244 22.4368 51.64 22.5448 52.108C22.6648 52.564 22.7548 52.936 22.8148 53.224C22.8748 52.936 22.9588 52.564 23.0668 52.108C23.1868 51.64 23.3008 51.244 23.4088 50.92L24.8488 46.6H27.6568L22.9768 59.74H20.1508ZM27.5238 56.5V46.6H30.0438V48.49H30.7278L29.9538 49.642C29.9538 48.574 30.1998 47.77 30.6918 47.23C31.1838 46.69 31.9038 46.42 32.8518 46.42C33.9438 46.42 34.7898 46.75 35.3898 47.41C36.0018 48.07 36.3078 49 36.3078 50.2V51.01H33.4278V50.38C33.4278 49.84 33.2778 49.42 32.9778 49.12C32.6898 48.82 32.2998 48.67 31.8078 48.67C31.2918 48.67 30.8958 48.82 30.6198 49.12C30.3558 49.42 30.2238 49.84 30.2238 50.38V56.5H27.5238ZM36.0308 56.5V54.052H39.4508V49.03H36.4808V46.6H41.9708V54.052H44.8508V56.5H36.0308ZM40.5308 45.034C40.0388 45.034 39.6428 44.908 39.3428 44.656C39.0548 44.404 38.9108 44.062 38.9108 43.63C38.9108 43.198 39.0548 42.856 39.3428 42.604C39.6428 42.352 40.0388 42.226 40.5308 42.226C41.0228 42.226 41.4128 42.352 41.7008 42.604C42.0008 42.856 42.1508 43.198 42.1508 43.63C42.1508 44.062 42.0008 44.404 41.7008 44.656C41.4128 44.908 41.0228 45.034 40.5308 45.034ZM48.8938 56.68C47.5618 56.68 46.5178 56.32 45.7618 55.6C45.0178 54.88 44.6458 53.896 44.6458 52.648V46.6H47.3458V52.63C47.3458 53.182 47.4778 53.608 47.7418 53.908C48.0058 54.196 48.3898 54.34 48.8938 54.34C49.3858 54.34 49.7638 54.196 50.0278 53.908C50.3038 53.608 50.4418 53.182 50.4418 52.63V46.6H53.1418V52.648C53.1418 53.908 52.7638 54.898 52.0078 55.618C51.2518 56.326 50.2138 56.68 48.8938 56.68ZM57.2027 56.68C56.3867 56.68 55.6727 56.554 55.0607 56.302C54.4487 56.038 53.9687 55.678 53.6207 55.222C53.2847 54.766 53.1167 54.232 53.1167 53.62H55.8167C55.8167 53.908 55.9427 54.142 56.1947 54.322C56.4587 54.49 56.7947 54.574 57.2027 54.574H57.9947C58.4867 54.574 58.8587 54.484 59.1107 54.304C59.3747 54.124 59.5067 53.872 59.5067 53.548C59.5067 53.248 59.3927 53.02 59.1647 52.864C58.9367 52.696 58.5827 52.582 58.1027 52.522L56.9507 52.378C55.7147 52.222 54.8147 51.922 54.2507 51.478C53.6867 51.034 53.4047 50.356 53.4047 49.444C53.4047 48.484 53.7347 47.74 54.3947 47.212C55.0547 46.684 56.0207 46.42 57.2927 46.42H57.9767C59.1887 46.42 60.1547 46.684 60.8747 47.212C61.5947 47.74 61.9547 48.448 61.9547 49.336H59.2547C59.2547 49.096 59.1347 48.904 58.8947 48.76C58.6667 48.604 58.3607 48.526 57.9767 48.526H57.2927C56.8487 48.526 56.5247 48.604 56.3207 48.76C56.1167 48.904 56.0147 49.126 56.0147 49.426C56.0147 49.702 56.1047 49.912 56.2847 50.056C56.4767 50.2 56.7767 50.302 57.1847 50.362L58.4267 50.524C59.6747 50.68 60.5987 50.992 61.1987 51.46C61.8107 51.928 62.1167 52.624 62.1167 53.548C62.1167 54.556 61.7687 55.33 61.0727 55.87C60.3767 56.41 59.3507 56.68 57.9947 56.68H57.2027Z" fill="url(#paint5_linear_55_3)"/>
<path d="M8.60188 59.74H26.0548V60.64H8.60188V59.74Z" fill="url(#paint6_linear_55_3)"/>
<defs>
<linearGradient id="paint0_linear_55_3" x1="5.2252" y1="22.5971" x2="22.9029" y2="4.91942" gradientUnits="userSpaceOnUse">
<stop stop-color="white"/>
<stop offset="1" stop-color="#4556E8" stop-opacity="0.43"/>
</linearGradient>
<linearGradient id="paint1_linear_55_3" x1="27.1612" y1="27.0165" x2="44.8388" y2="9.33884" gradientUnits="userSpaceOnUse">
<stop stop-color="white"/>
<stop offset="1" stop-color="#4556E8" stop-opacity="0.43"/>
</linearGradient>
<linearGradient id="paint2_linear_55_3" x1="53.5165" y1="18.1777" x2="62.3553" y2="9.33884" gradientUnits="userSpaceOnUse">
<stop stop-color="white"/>
<stop offset="1" stop-color="#4556E8" stop-opacity="0.43"/>
</linearGradient>
<linearGradient id="paint3_linear_55_3" x1="36" y1="37.5" x2="36" y2="63.5" gradientUnits="userSpaceOnUse">
<stop stop-color="#7C89FB"/>
<stop offset="0.109375" stop-color="#7986FB" stop-opacity="0.901042"/>
<stop offset="1" stop-color="#5667FF" stop-opacity="0"/>
</linearGradient>
<linearGradient id="paint4_linear_55_3" x1="36" y1="37.5" x2="36" y2="63.5" gradientUnits="userSpaceOnUse">
<stop stop-color="#7C89FB"/>
<stop offset="0.109375" stop-color="#7986FB" stop-opacity="0.901042"/>
<stop offset="1" stop-color="#5667FF" stop-opacity="0"/>
</linearGradient>
<linearGradient id="paint5_linear_55_3" x1="35.8058" y1="37.5" x2="35.8058" y2="63.5" gradientUnits="userSpaceOnUse">
<stop stop-color="#7C89FB"/>
<stop offset="0.109375" stop-color="#7986FB" stop-opacity="0.901042"/>
<stop offset="1" stop-color="#5667FF" stop-opacity="0"/>
</linearGradient>
<linearGradient id="paint6_linear_55_3" x1="35.8058" y1="37.5" x2="35.8058" y2="63.5" gradientUnits="userSpaceOnUse">
<stop stop-color="#7C89FB"/>
<stop offset="0.109375" stop-color="#7986FB" stop-opacity="0.901042"/>
<stop offset="1" stop-color="#5667FF" stop-opacity="0"/>
</linearGradient>
<clipPath id="clip0_55_3">
<rect width="70.3884" height="31" fill="white" transform="translate(0.805786 0.5)"/>
</clipPath>
</defs>
</svg>
